<?xml version="1.0"?>
<!DOCTYPE svg PUBLIC '-//W3C//DTD SVG 1.0//EN'
    'http://www.w3.org/TR/2001/REC-SVG-20010904/DTD/svg10.dtd' >

<svg fill-opacity="1" xmlns:xlink="http://www.w3.org/1999/xlink"
     color-rendering="auto" color-interpolation="auto" text-rendering="auto"
     stroke="black" stroke-linecap="square" width="87" stroke-miterlimit="10"
     shape-rendering="auto" stroke-opacity="1" fill="black"
     stroke-dasharray="none" font-weight="normal" stroke-width="1" height="167"
     xmlns="http://www.w3.org/2000/svg" font-family="&apos;Dialog&apos;"
     font-style="normal" stroke-linejoin="miter" font-size="12"
     stroke-dashoffset="0" image-rendering="auto">
    <!-- Generated by TreeGraph 2.11.1-654 beta with Apache Batik SVG Generator
    <http://treegraph.bioinfweb.info/> -->
    <defs id="genericDefs"/>
    <g>
        <g fill="white" stroke="white">
            <rect x="0" width="87" height="167" y="0" stroke="none"/>
            <path fill="black"
                  d="M5 80.5039 L18 80.5039 L18 81.3543 L5 81.3543 Z"
                  stroke="none"/>
        </g>
        <g stroke-linecap="butt" stroke-linejoin="bevel" stroke-width="0.8504">
            <path fill="none"
                  d="M21 24.378 L20.6929 24.378 L20.2677 24.378 C18.7022 24.378 17.4331 25.6471 17.4331 27.2126 L17.4331 28.063 L17.4331 132.9449 L17.4331 133.7953 C17.4331 135.3608 18.7022 136.6299 20.2677 136.6299 L20.6929 136.6299 L21 136.6299"/>
            <path d="M20.6929 23.9528 L33 23.9528 L33 24.8032 L20.6929 24.8032 Z"
                  stroke-width="1" stroke-linecap="square" stroke="none"
                  stroke-linejoin="miter"/>
            <path fill="none"
                  d="M36 15.0236 L35.7165 15.0236 L35.2913 15.0236 C33.7258 15.0236 32.4567 16.2927 32.4567 17.8583 L32.4567 18.7087 L32.4567 30.0472 L32.4567 30.8976 C32.4567 32.4632 33.7258 33.7323 35.2913 33.7323 L35.7165 33.7323 L36 33.7323"/>
            <path d="M35.7165 14.5984 L47.0551 14.5984 L47.0551 15.4488 L35.7165 15.4488 Z"
                  stroke-width="1" stroke-linecap="square" stroke="none"
                  stroke-linejoin="miter"/>
        </g>
        <g font-family="&apos;Arial&apos;" font-size="14">
            <text x="49.8898" xml:space="preserve" y="19.5197" stroke="none">12.0</text><path d="M35.7165 33.3071 L47.0551 33.3071 L47.0551 34.1575 L35.7165 34.1575 Z"
                  stroke="none"/>
            <text x="49.8898" xml:space="preserve" y="38.2283" stroke="none">13.0</text><path d="M17 61.3701 L33 61.3701 L33 62.2205 L17 62.2205 Z"
                  stroke="none"/>
            <path fill="none"
                  d="M36 52.4409 L35.7165 52.4409 L35.2913 52.4409 C33.7258 52.4409 32.4567 53.7101 32.4567 55.2756 L32.4567 56.126 L32.4567 67.4646 L32.4567 68.315 C32.4567 69.8805 33.7258 71.1496 35.2913 71.1496 L35.7165 71.1496 L36 71.1496"
                  stroke-width="0.8504" stroke-linecap="butt"
                  stroke-linejoin="bevel"/>
            <path d="M35.7165 52.0158 L47.0551 52.0158 L47.0551 52.8661 L35.7165 52.8661 Z"
                  stroke="none"/>
            <text x="49.8898" xml:space="preserve" y="56.937" stroke="none">13.0</text><path d="M35.7165 70.7244 L47.0551 70.7244 L47.0551 71.5748 L35.7165 71.5748 Z"
                  stroke="none"/>
            <text x="49.8898" xml:space="preserve" y="75.6457" stroke="none">12.0</text><path d="M17 98.7874 L33 98.7874 L33 99.6378 L17 99.6378 Z"
                  stroke="none"/>
            <path fill="none"
                  d="M36 89.8583 L35.7165 89.8583 L35.2913 89.8583 C33.7258 89.8583 32.4567 91.1274 32.4567 92.6929 L32.4567 93.5433 L32.4567 104.8819 L32.4567 105.7323 C32.4567 107.2978 33.7258 108.5669 35.2913 108.5669 L35.7165 108.5669 L36 108.5669"
                  stroke-width="0.8504" stroke-linecap="butt"
                  stroke-linejoin="bevel"/>
            <path d="M35.7165 89.4331 L47.0551 89.4331 L47.0551 90.2835 L35.7165 90.2835 Z"
                  stroke="none"/>
            <text x="49.8898" xml:space="preserve" y="94.3543" stroke="none">12.0</text><path d="M35.7165 108.1417 L47.0551 108.1417 L47.0551 108.9921 L35.7165 108.9921 Z"
                  stroke="none"/>
            <text x="49.8898" xml:space="preserve" y="113.063" stroke="none">12.0</text><path d="M20.6929 136.2047 L33 136.2047 L33 137.0551 L20.6929 137.0551 Z"
                  stroke="none"/>
            <path fill="none"
                  d="M36 127.2756 L35.7165 127.2756 L35.2913 127.2756 C33.7258 127.2756 32.4567 128.5447 32.4567 130.1102 L32.4567 130.9606 L32.4567 142.2992 L32.4567 143.1496 C32.4567 144.7151 33.7258 145.9843 35.2913 145.9843 L35.7165 145.9843 L36 145.9843"
                  stroke-width="0.8504" stroke-linecap="butt"
                  stroke-linejoin="bevel"/>
            <path d="M35.7165 126.8504 L47.0551 126.8504 L47.0551 127.7008 L35.7165 127.7008 Z"
                  stroke="none"/>
            <text x="49.8898" xml:space="preserve" y="131.7717" stroke="none">13.0</text><path d="M35.7165 145.5591 L47.0551 145.5591 L47.0551 146.4095 L35.7165 146.4095 Z"
                  stroke="none"/>
            <text x="49.8898" xml:space="preserve" y="150.4803" stroke="none">13.0</text>
        </g>
    </g>
</svg>
