<svg viewBox="0 0 800 600" version="1.1" xmlns="http://www.w3.org/2000/svg" xmlns:xlink="http://www.w3.org/1999/xlink" xml:space="preserve" font-family="Arial" style="width: 800px; height: 600px;"><g id="layer_tree" transform="matrix(1 0 0 1 -98 -110)"><rect fill-opacity="0.0" height="10" width="10" x="0" y="0"/><g id="layer_tree_line2leaf_label" stroke="grey" stroke-width="0.30000001192092896" stroke-dasharray="4,4"/><g id="layer_tree_charts"/><g id="layer_tree_timeline"/><g fill-opacity="1" id="layer_tree_skeleton" stroke-width="1" stroke-linecap="round"><g pointer-events="all"><path stroke="black" fill="none" d="M 240 240 A 0 0 0 0 0 240 240 L 244.89486694335938 259.3917541503906"/><circle stroke="red" fill="red" style="visibility: hidden; display: none;" cy="259.392" r="2" cx="244.895"/><path stroke="none" fill="none" d="M 240 240 A 0 0 0 0 0 240 240 L 244.89486694335938 259.3917541503906" stroke-width="5px"/></g><g pointer-events="all"><path stroke="black" fill="none" d="M 244.89486694335938 259.3917541503906 A 20 20 0 0 0 259.0743408203125 246.0141143798828 L 297.2230224609375 258.0423583984375"/><circle stroke="red" fill="red" style="visibility: hidden; display: none;" cy="258.042" r="2" cx="297.223"/><path stroke="none" fill="none" d="M 244.89486694335938 259.3917541503906 A 20 20 0 0 0 259.0743408203125 246.0141143798828 L 297.2230224609375 258.0423583984375" stroke-width="5px"/></g><g pointer-events="all"><path stroke="black" fill="none" d="M 297.2230224609375 258.0423583984375 A 60 60 0 0 0 300 240 L 340 240"/><circle stroke="red" fill="red" style="visibility: hidden; display: none;" cy="240" r="2" cx="340"/><path stroke="none" fill="none" d="M 297.2230224609375 258.0423583984375 A 60 60 0 0 0 300 240 L 340 240" stroke-width="5px"/></g><g pointer-events="all"><path stroke="black" fill="none" d="M 297.2230224609375 258.0423583984375 A 60 60 0 0 1 289.14910888671875 274.4145812988281 L 305.53216552734375 285.8861083984375"/><circle stroke="red" fill="red" style="visibility: hidden; display: none;" cy="285.886" r="2" cx="305.532"/><path stroke="none" fill="none" d="M 297.2230224609375 258.0423583984375 A 60 60 0 0 1 289.14910888671875 274.4145812988281 L 305.53216552734375 285.8861083984375" stroke-width="5px"/></g><g pointer-events="all"><path stroke="black" fill="none" d="M 305.53216552734375 285.8861083984375 A 80 80 0 0 0 313.457275390625 271.6863708496094 L 331.82159423828125 279.60797119140625"/><circle stroke="red" fill="red" style="visibility: hidden; display: none;" cy="279.608" r="2" cx="331.822"/><path stroke="none" fill="none" d="M 305.53216552734375 285.8861083984375 A 80 80 0 0 0 313.457275390625 271.6863708496094 L 331.82159423828125 279.60797119140625" stroke-width="5px"/></g><g pointer-events="all"><path stroke="black" fill="none" d="M 305.53216552734375 285.8861083984375 A 80 80 0 0 1 294.8993225097656 298.18988037109375 L 308.6241455078125 312.73736572265625"/><circle stroke="red" fill="red" style="visibility: hidden; display: none;" cy="312.737" r="2" cx="308.624"/><path stroke="none" fill="none" d="M 305.53216552734375 285.8861083984375 A 80 80 0 0 1 294.8993225097656 298.18988037109375 L 308.6241455078125 312.73736572265625" stroke-width="5px"/></g><g pointer-events="all"><path stroke="black" fill="none" d="M 244.89486694335938 259.3917541503906 A 20 20 0 0 1 226.06504821777344 254.34632873535156 L 212.1300811767578 268.6926574707031"/><circle stroke="red" fill="red" style="visibility: hidden; display: none;" cy="268.693" r="2" cx="212.13"/><path stroke="none" fill="none" d="M 244.89486694335938 259.3917541503906 A 20 20 0 0 1 226.06504821777344 254.34632873535156 L 212.1300811767578 268.6926574707031" stroke-width="5px"/></g><g pointer-events="all"><path stroke="black" fill="none" d="M 212.1300811767578 268.6926574707031 A 40 40 0 0 0 233.6277313232422 279.4891662597656 L 230.44158935546875 299.2337341308594"/><circle stroke="red" fill="red" style="visibility: hidden; display: none;" cy="299.234" r="2" cx="230.442"/><path stroke="none" fill="none" d="M 212.1300811767578 268.6926574707031 A 40 40 0 0 0 233.6277313232422 279.4891662597656 L 230.44158935546875 299.2337341308594" stroke-width="5px"/></g><g pointer-events="all"><path stroke="black" fill="none" d="M 230.44158935546875 299.2337341308594 A 60 60 0 0 0 248.69590759277344 299.3664855957031 L 251.59454345703125 319.15533447265625"/><circle stroke="red" fill="red" style="visibility: hidden; display: none;" cy="319.155" r="2" cx="251.595"/><path stroke="none" fill="none" d="M 230.44158935546875 299.2337341308594 A 60 60 0 0 0 248.69590759277344 299.3664855957031 L 251.59454345703125 319.15533447265625" stroke-width="5px"/></g><g pointer-events="all"><path stroke="black" fill="none" d="M 251.59454345703125 319.15533447265625 A 80 80 0 0 0 267.3616027832031 315.1754150390625 L 274.2020263671875 333.9692687988281"/><circle stroke="red" fill="red" style="visibility: hidden; display: none;" cy="333.969" r="2" cx="274.202"/><path stroke="none" fill="none" d="M 251.59454345703125 319.15533447265625 A 80 80 0 0 0 267.3616027832031 315.1754150390625 L 274.2020263671875 333.9692687988281" stroke-width="5px"/></g><g pointer-events="all"><path stroke="black" fill="none" d="M 251.59454345703125 319.15533447265625 A 80 80 0 0 1 235.34841918945312 319.8646545410156 L 234.18551635742188 339.830810546875"/><circle stroke="red" fill="red" style="visibility: hidden; display: none;" cy="339.831" r="2" cx="234.186"/><path stroke="none" fill="none" d="M 251.59454345703125 319.15533447265625 A 80 80 0 0 1 235.34841918945312 319.8646545410156 L 234.18551635742188 339.830810546875" stroke-width="5px"/></g><g pointer-events="all"><path stroke="black" fill="none" d="M 230.44158935546875 299.2337341308594 A 60 60 0 0 1 213.07205200195312 293.6179504394531 L 195.12008666992188 329.36328125"/><circle stroke="red" fill="red" style="visibility: hidden; display: none;" cy="329.363" r="2" cx="195.12"/><path stroke="none" fill="none" d="M 230.44158935546875 299.2337341308594 A 60 60 0 0 1 213.07205200195312 293.6179504394531 L 195.12008666992188 329.36328125" stroke-width="5px"/></g><g pointer-events="all"><path stroke="black" fill="none" d="M 212.1300811767578 268.6926574707031 A 40 40 0 0 1 200.71287536621094 247.5181121826172 L 181.06932067871094 251.27716064453125"/><circle stroke="red" fill="red" style="visibility: hidden; display: none;" cy="251.277" r="2" cx="181.069"/><path stroke="none" fill="none" d="M 212.1300811767578 268.6926574707031 A 40 40 0 0 1 200.71287536621094 247.5181121826172 L 181.06932067871094 251.27716064453125" stroke-width="5px"/></g><g pointer-events="all"><path stroke="black" fill="none" d="M 181.06932067871094 251.27716064453125 A 60 60 0 0 0 187.1879119873047 268.47601318359375 L 169.58389282226562 277.968017578125"/><circle stroke="red" fill="red" style="visibility: hidden; display: none;" cy="277.968" r="2" cx="169.584"/><path stroke="none" fill="none" d="M 181.06932067871094 251.27716064453125 A 60 60 0 0 0 187.1879119873047 268.47601318359375 L 169.58389282226562 277.968017578125" stroke-width="5px"/></g><g pointer-events="all"><path stroke="black" fill="none" d="M 169.58389282226562 277.968017578125 A 80 80 0 0 0 178.71644592285156 291.4230041503906 L 163.3955535888672 304.27874755859375"/><circle stroke="red" fill="red" style="visibility: hidden; display: none;" cy="304.279" r="2" cx="163.396"/><path stroke="none" fill="none" d="M 169.58389282226562 277.968017578125 A 80 80 0 0 0 178.71644592285156 291.4230041503906 L 163.3955535888672 304.27874755859375" stroke-width="5px"/></g><g pointer-events="all"><path stroke="black" fill="none" d="M 169.58389282226562 277.968017578125 A 80 80 0 0 1 163.36083984375 262.9442443847656 L 144.2010498046875 268.6803283691406"/><circle stroke="red" fill="red" style="visibility: hidden; display: none;" cy="268.68" r="2" cx="144.201"/><path stroke="none" fill="none" d="M 169.58389282226562 277.968017578125 A 80 80 0 0 1 163.36083984375 262.9442443847656 L 144.2010498046875 268.6803283691406" stroke-width="5px"/></g><g pointer-events="all"><path stroke="black" fill="none" d="M 181.06932067871094 251.27716064453125 A 60 60 0 0 1 180.40570068359375 233.034423828125 L 140.67616271972656 228.39071655273438"/><circle stroke="red" fill="red" style="visibility: hidden; display: none;" cy="228.391" r="2" cx="140.676"/><path stroke="none" fill="none" d="M 181.06932067871094 251.27716064453125 A 60 60 0 0 1 180.40570068359375 233.034423828125 L 140.67616271972656 228.39071655273438" stroke-width="5px"/></g><g pointer-events="all"><path stroke="black" fill="none" d="M 240 240 A 0 0 0 0 1 240 240 L 199.46458435058594 195.76336669921875"/><circle stroke="red" fill="red" style="visibility: hidden; display: none;" cy="195.763" r="2" cx="199.465"/><path stroke="none" fill="none" d="M 240 240 A 0 0 0 0 1 240 240 L 199.46458435058594 195.76336669921875" stroke-width="5px"/></g><g pointer-events="all"><path stroke="black" fill="none" d="M 199.46458435058594 195.76336669921875 A 60 60 0 0 0 188.03848266601562 210 L 153.3974609375 190"/><circle stroke="red" fill="red" style="visibility: hidden; display: none;" cy="190" r="2" cx="153.397"/><path stroke="none" fill="none" d="M 199.46458435058594 195.76336669921875 A 60 60 0 0 0 188.03848266601562 210 L 153.3974609375 190" stroke-width="5px"/></g><g pointer-events="all"><path stroke="black" fill="none" d="M 199.46458435058594 195.76336669921875 A 60 60 0 0 1 214.6428985595703 185.6215362548828 L 206.19053649902344 167.49537658691406"/><circle stroke="red" fill="red" style="visibility: hidden; display: none;" cy="167.495" r="2" cx="206.191"/><path stroke="none" fill="none" d="M 199.46458435058594 195.76336669921875 A 60 60 0 0 1 214.6428985595703 185.6215362548828 L 206.19053649902344 167.49537658691406" stroke-width="5px"/></g><g pointer-events="all"><path stroke="black" fill="none" d="M 206.19053649902344 167.49537658691406 A 80 80 0 0 0 192.22731018066406 175.83013916015625 L 180.28414916992188 159.78768920898438"/><circle stroke="red" fill="red" style="visibility: hidden; display: none;" cy="159.788" r="2" cx="180.284"/><path stroke="none" fill="none" d="M 206.19053649902344 167.49537658691406 A 80 80 0 0 0 192.22731018066406 175.83013916015625 L 180.28414916992188 159.78768920898438" stroke-width="5px"/></g><g pointer-events="all"><path stroke="black" fill="none" d="M 206.19053649902344 167.49537658691406 A 80 80 0 0 1 221.5507354736328 162.15640258789062 L 216.93841552734375 142.6955108642578"/><circle stroke="red" fill="red" style="visibility: hidden; display: none;" cy="142.696" r="2" cx="216.938"/><path stroke="none" fill="none" d="M 206.19053649902344 167.49537658691406 A 80 80 0 0 1 221.5507354736328 162.15640258789062 L 216.93841552734375 142.6955108642578" stroke-width="5px"/></g><g pointer-events="all"><path stroke="black" fill="none" d="M 240 240 A 0 0 0 0 1 240 240 L 267.7049255371094 186.77935791015625"/><circle stroke="red" fill="red" style="visibility: hidden; display: none;" cy="186.779" r="2" cx="267.705"/><path stroke="none" fill="none" d="M 240 240 A 0 0 0 0 1 240 240 L 267.7049255371094 186.77935791015625" stroke-width="5px"/></g><g pointer-events="all"><path stroke="black" fill="none" d="M 267.7049255371094 186.77935791015625 A 60 60 0 0 0 250.41888427734375 180.91152954101562 L 257.36480712890625 141.51922607421875"/><circle stroke="red" fill="red" style="visibility: hidden; display: none;" cy="141.519" r="2" cx="257.365"/><path stroke="none" fill="none" d="M 267.7049255371094 186.77935791015625 A 60 60 0 0 0 250.41888427734375 180.91152954101562 L 257.36480712890625 141.51922607421875" stroke-width="5px"/></g><g pointer-events="all"><path stroke="black" fill="none" d="M 267.7049255371094 186.77935791015625 A 60 60 0 0 1 282.4263916015625 197.57359313964844 L 296.56854248046875 183.43145751953125"/><circle stroke="red" fill="red" style="visibility: hidden; display: none;" cy="183.431" r="2" cx="296.569"/><path stroke="none" fill="none" d="M 267.7049255371094 186.77935791015625 A 60 60 0 0 1 282.4263916015625 197.57359313964844 L 296.56854248046875 183.43145751953125" stroke-width="5px"/></g><g pointer-events="all"><path stroke="black" fill="none" d="M 296.56854248046875 183.43145751953125 A 80 80 0 0 0 283.9607238769531 173.16098022460938 L 294.9508972167969 156.4512176513672"/><circle stroke="red" fill="red" style="visibility: hidden; display: none;" cy="156.451" r="2" cx="294.951"/><path stroke="none" fill="none" d="M 296.56854248046875 183.43145751953125 A 80 80 0 0 0 283.9607238769531 173.16098022460938 L 294.9508972167969 156.4512176513672" stroke-width="5px"/></g><g pointer-events="all"><path stroke="black" fill="none" d="M 296.56854248046875 183.43145751953125 A 80 80 0 0 1 306.8390197753906 196.03927612304688 L 323.54876708984375 185.04910278320312"/><circle stroke="red" fill="red" style="visibility: hidden; display: none;" cy="185.049" r="2" cx="323.549"/><path stroke="none" fill="none" d="M 296.56854248046875 183.43145751953125 A 80 80 0 0 1 306.8390197753906 196.03927612304688 L 323.54876708984375 185.04910278320312" stroke-width="5px"/></g></g><g id="layer_tree_skeleton_shadow" stroke-width="4" stroke-linecap="round" stroke="none" fill="none"/><g fill-opacity="0.5" id="layer_tree_leaflabel_background"/><g fill-opacity="1" id="layer_tree_leaf_labels" font-family="Arial" font-style="normal" style="font-size: 14px;"><text x="345" y="244" fill="black" transform="rotate(0)">&gt;1</text><text x="345" y="244" fill="black" transform="rotate(23.3333 240 240)">&gt;2</text><text x="345" y="244" fill="black" transform="rotate(46.6667 240 240)">&gt;3</text><text x="345" y="244" fill="black" transform="rotate(70 240 240)">&gt;10</text><text x="345" y="244" text-anchor="end" fill="black" transform="rotate(93.3333 240 240) rotate(180 345 240)">&gt;12</text><text x="345" y="244" text-anchor="end" fill="black" transform="rotate(116.667 240 240) rotate(180 345 240)">&gt;14</text><text x="345" y="244" text-anchor="end" fill="black" transform="rotate(140 240 240) rotate(180 345 240)">&gt;11</text><text x="345" y="244" text-anchor="end" fill="black" transform="rotate(163.333 240 240) rotate(180 345 240)">&gt;15</text><text x="345" y="244" text-anchor="end" fill="black" transform="rotate(-173.333 240 240) rotate(180 345 240)">&gt;13</text><text x="345" y="244" text-anchor="end" fill="black" transform="rotate(-150 240 240) rotate(180 345 240)">&gt;4</text><text x="345" y="244" text-anchor="end" fill="black" transform="rotate(-126.667 240 240) rotate(180 345 240)">&gt;5</text><text x="345" y="244" text-anchor="end" fill="black" transform="rotate(-103.333 240 240) rotate(180 345 240)">&gt;6</text><text x="345" y="244" fill="black" transform="rotate(-80 240 240)">&gt;7</text><text x="345" y="244" fill="black" transform="rotate(-56.6667 240 240)">&gt;8</text><text x="345" y="244" fill="black" transform="rotate(-33.3333 240 240)">&gt;9</text></g><g id="layer_tree_bootstrap" font-family="Arial" font-style="normal" style="visibility: hidden; display: none; font-size: 10px;"/><g id="layer_tree_branchlength" font-family="Arial" font-style="normal" style="visibility: hidden; display: none; font-size: 10px;"><text text-anchor="middle" x="320" y="237" transform="rotate(0)">0.0217</text><text text-anchor="middle" x="330" y="237" transform="rotate(23.3333 240 240)">-0.0434</text><text text-anchor="middle" x="330" y="237" transform="rotate(46.6667 240 240)">-0.0434</text><text text-anchor="middle" x="310" y="237" transform="rotate(35 240 240)">0.0217</text><text text-anchor="middle" x="280" y="237" transform="rotate(17.5 240 240)">-0.0222</text><text text-anchor="middle" x="330" y="237" transform="rotate(70 240 240)">0.0099</text><text text-anchor="middle" x="330" y="237" transform="rotate(93.3333 240 240) rotate(180 330 240)">0.0099</text><text text-anchor="middle" x="310" y="237" transform="rotate(81.6667 240 240)">-0.0107</text><text text-anchor="middle" x="320" y="237" transform="rotate(116.667 240 240) rotate(180 320 240)">-0.0008</text><text text-anchor="middle" x="290" y="237" transform="rotate(99.1667 240 240) rotate(180 290 240)">0.0003</text><text text-anchor="middle" x="330" y="237" transform="rotate(140 240 240) rotate(180 330 240)">-0.0132</text><text text-anchor="middle" x="330" y="237" transform="rotate(163.333 240 240) rotate(180 330 240)">-0.0132</text><text text-anchor="middle" x="310" y="237" transform="rotate(151.667 240 240) rotate(180 310 240)">8.962E-7</text><text text-anchor="middle" x="320" y="237" transform="rotate(-173.333 240 240) rotate(180 320 240)">-0.0012</text><text text-anchor="middle" x="290" y="237" transform="rotate(169.167 240 240) rotate(180 290 240)">0.0003</text><text text-anchor="middle" x="270" y="237" transform="rotate(134.167 240 240) rotate(180 270 240)">-0.0222</text><text text-anchor="middle" x="250" y="237" transform="rotate(75.8333 240 240)">5000</text><text text-anchor="middle" x="320" y="237" transform="rotate(-150 240 240) rotate(180 320 240)">0.0217</text><text text-anchor="middle" x="330" y="237" transform="rotate(-126.667 240 240) rotate(180 330 240)">-0.0434</text><text text-anchor="middle" x="330" y="237" transform="rotate(-103.333 240 240) rotate(180 330 240)">-0.0434</text><text text-anchor="middle" x="310" y="237" transform="rotate(-115 240 240) rotate(180 310 240)">0.0217</text><text text-anchor="middle" x="270" y="237" transform="rotate(-132.5 240 240) rotate(180 270 240)">-0.0222</text><text text-anchor="middle" x="320" y="237" transform="rotate(-80 240 240)">0.0217</text><text text-anchor="middle" x="330" y="237" transform="rotate(-56.6667 240 240)">-0.0434</text><text text-anchor="middle" x="330" y="237" transform="rotate(-33.3333 240 240)">-0.0434</text><text text-anchor="middle" x="310" y="237" transform="rotate(-45 240 240)">0.0217</text><text text-anchor="middle" x="270" y="237" transform="rotate(-62.5 240 240)">-0.0222</text><text text-anchor="middle" x="240" y="237" transform="rotate(180 240 240) rotate(180 240 240)">0</text></g><g id="layer_tree_leaflabel_decoration"/></g><g id="layer_branch_length_scale" style="stroke: black; width: 1px; visibility: visible;"/><g id="layer_legend" font-family="Arial"/><defs><filter id="simpleDropshadow" filterUnits="userSpaceOnUse"><feOffset in="SourceAlpha" result="offOut" dx="1" dy="1"/><feGaussianBlur in="offOut" result="blurOut" stdDeviation="2"/><feBlend in="SourceGraphic" in2="blurOut"/></filter><filter id="dropshadow" filterUnits="userSpaceOnUse"><feOffset result="offsetblur" dx="1" dy="1"/><feGaussianBlur in="SourceAlpha" stdDeviation="1"/><feMerge><feMergeNode/><feMergeNode in="SourceGraphic"/></feMerge></filter><linearGradient/></defs></svg>